<?xml version="1.0" encoding="utf-8"?>
<!-- Generator: Adobe Illustrator 16.0.0, SVG Export Plug-In . SVG Version: 6.00 Build 0)  -->
<!DOCTYPE svg PUBLIC "-//W3C//DTD SVG 1.1//EN" "http://www.w3.org/Graphics/SVG/1.1/DTD/svg11.dtd">
<svg version="1.1" id="Layer_1" xmlns="http://www.w3.org/2000/svg" xmlns:xlink="http://www.w3.org/1999/xlink" x="0px" y="0px"
	 width="20px" height="20px" viewBox="0 0 20 20" enable-background="new 0 0 20 20" xml:space="preserve">
<path fill="#808080" d="M10,0C4.5,0,0,4.5,0,10s4.5,10,10,10s10-4.5,10-10S15.5,0,10,0z M10,16.625
	c-3.644,0-6.625-2.981-6.625-6.625S6.356,3.375,10,3.375c3.643,0,6.625,2.981,6.625,6.625S13.643,16.625,10,16.625z"/>
<g id="Material-Design-Symbols_2_">
	<g id="Material_x2F_Icons-white_x2F_cancel_2_" transform="translate(-2.000000, -2.000000)">
		<path id="Shape_2_" fill="#808080" d="M12.001,6.907c-2.803,0-5.095,2.292-5.095,5.094c0,2.802,2.292,5.093,5.095,5.093
			c2.801,0,5.093-2.291,5.093-5.093C17.094,9.199,14.802,6.907,12.001,6.907L12.001,6.907z"/>
	</g>
</g>
</svg>
