<?xml version="1.0" encoding="utf-8"?>
<!-- Generator: Adobe Illustrator 16.0.0, SVG Export Plug-In . SVG Version: 6.00 Build 0)  -->
<!DOCTYPE svg PUBLIC "-//W3C//DTD SVG 1.1//EN" "http://www.w3.org/Graphics/SVG/1.1/DTD/svg11.dtd">
<svg version="1.1" id="Layer_1" xmlns="http://www.w3.org/2000/svg" xmlns:xlink="http://www.w3.org/1999/xlink" x="0px" y="0px"
	 width="20px" height="20px" viewBox="0 0 20 20" enable-background="new 0 0 20 20" xml:space="preserve">
<path fill="#808080" d="M1.344,10.499c0.994,0.963,1.956,1.957,2.942,2.928c0.199,0.196,0.242,0.313,0.054,0.574
	c-1.35,1.86-2.674,3.737-3.943,5.69c1.962-1.398,3.923-2.796,5.948-4.24c0.785,0.799,1.574,1.604,2.366,2.406
	c0.466,0.472,0.925,0.949,1.407,1.403c1.316,1.241,3.484,0.646,3.867-1.088c0.137-0.624,0.082-1.289,0.135-1.934
	c0.146-1.797,0.535-3.524,1.649-4.998c0.735-0.973,1.774-1.549,2.851-2.065c0.693-0.333,1.092-0.875,1.252-1.636
	c0.168-0.808-0.057-1.499-0.598-2.058c-1.57-1.613-3.156-3.213-4.781-4.772c-0.322-0.311-0.834-0.424-1.259-0.629
	c-0.177,0-0.354,0-0.53,0c-0.164,0.048-0.328,0.095-0.49,0.146c-0.635,0.195-1.078,0.6-1.367,1.202
	C10.237,2.692,9.53,3.897,8.267,4.621c-1.189,0.68-2.478,1.089-3.851,1.2C3.672,5.883,2.924,5.914,2.182,5.985
	C1.104,6.089,0.381,6.765,0.149,7.845C0.142,7.88,0.1,7.91,0.073,7.942c0,0.205,0,0.412,0,0.618
	C0.239,9.376,0.77,9.943,1.344,10.499z M35.678,97.696c9.659-1.341,18.916-3.884,25.723-11.439
	c2.719-3.018,4.652-6.746,6.929-10.159c0.323-0.484,0.569-1.021,0.958-1.726c6.251,6.458,12.405,12.813,18.607,19.221
	c-2.625,1.579-5.128,2.961-7.502,4.535c-7.593,5.037-11.781,12.467-13.809,21.056c-1.212,5.131-1.498,10.48-2.194,15.732
	c-0.051,0.389-0.051,0.785-0.062,0.974c-12.516-12.515-25.044-25.042-37.546-37.544C29.631,98.148,32.681,98.112,35.678,97.696z"/>
</svg>
